<svg id="图层_1" data-name="图层 1" xmlns="http://www.w3.org/2000/svg" viewBox="0 0 639 284.13"><defs><style>.cls-1{fill:#46c051;}.cls-2{fill:#fff;}.cls-3{fill:none;stroke:#46c051;stroke-linecap:round;stroke-linejoin:round;stroke-width:4px;}</style></defs><title>未标题-1</title><path class="cls-1" d="M553.12,446.44V424q.24-4.62,4.63-4.87,4.37.25,4.61,4.87V446q.74,9.74,9.73,10.22,8.76-.72,9.48-10.22V424c.16-3.08,1.71-4.7,4.63-4.87q4.37.25,4.61,4.87v22.41q-1.45,16.56-18.72,17.77Q554.58,463,553.12,446.44Z" transform="translate(-36 -180.8)"/><path class="cls-1" d="M606.38,424c1.3-3.24,3.49-4.95,6.57-5.11,3.08,0,5.34,1.7,6.81,5.11l12.16,33.85a7.87,7.87,0,0,1,.49,2.44c-.16,2.43-1.63,3.65-4.38,3.65a4.54,4.54,0,0,1-4.62-2.93l-1.71-5.84H604.44L602.5,461a4.58,4.58,0,0,1-4.63,2.93c-2.76,0-4.21-1.3-4.38-3.9a7.2,7.2,0,0,1,.24-1.7v-.49Zm6.57,4.63-5.84,18h11.67Z" transform="translate(-36 -180.8)"/><path class="cls-1" d="M555.1,399.47a4.84,4.84,0,0,1-4.67,5h0a4.84,4.84,0,0,1-4.67-5V364.16a4.84,4.84,0,0,1,4.67-5h0a4.84,4.84,0,0,1,4.67,5Z" transform="translate(-36 -180.8)"/><path class="cls-1" d="M579.5,399.47a4.84,4.84,0,0,1-4.67,5h0a4.84,4.84,0,0,1-4.67-5V364.16a4.84,4.84,0,0,1,4.67-5h0a4.84,4.84,0,0,1,4.67,5Z" transform="translate(-36 -180.8)"/><path class="cls-1" d="M535.28,459.14a4.73,4.73,0,0,1-4.62,4.83h0a4.73,4.73,0,0,1-4.62-4.83V425a4.73,4.73,0,0,1,4.62-4.83h0a4.73,4.73,0,0,1,4.62,4.83Z" transform="translate(-36 -180.8)"/><path class="cls-1" d="M526.35,398.91a4.83,4.83,0,0,1-4.67,5h0a4.84,4.84,0,0,1-4.68-5V363.59a4.85,4.85,0,0,1,4.68-5h0a4.84,4.84,0,0,1,4.67,5Z" transform="translate(-36 -180.8)"/><path class="cls-1" d="M553.08,397a4.91,4.91,0,0,1-.66,6.9h0a4.9,4.9,0,0,1-6.8-1.27L518.75,366.9a4.93,4.93,0,0,1,.67-6.91h0a4.9,4.9,0,0,1,6.8,1.28Z" transform="translate(-36 -180.8)"/><path class="cls-1" d="M675,459.65a4.79,4.79,0,0,1-4.62,4.94h0a4.79,4.79,0,0,1-4.62-4.94V424.72a4.79,4.79,0,0,1,4.62-4.94h0a4.79,4.79,0,0,1,4.62,4.94Z" transform="translate(-36 -180.8)"/><path class="cls-1" d="M646.57,459.08A4.8,4.8,0,0,1,642,464h0a4.8,4.8,0,0,1-4.62-4.95V424.16a4.79,4.79,0,0,1,4.62-4.94h0a4.79,4.79,0,0,1,4.62,4.94Z" transform="translate(-36 -180.8)"/><path class="cls-1" d="M673,457.24a4.86,4.86,0,0,1-.66,6.83h0a4.85,4.85,0,0,1-6.73-1.27l-26.57-35.37a4.88,4.88,0,0,1,.66-6.83h0a4.86,4.86,0,0,1,6.73,1.27Z" transform="translate(-36 -180.8)"/><path class="cls-1" d="M547.85,423.9a4.1,4.1,0,0,1-4,4.22H517.72a4.1,4.1,0,0,1-4-4.22h0a4.1,4.1,0,0,1,4-4.22h26.16a4.1,4.1,0,0,1,4,4.22Z" transform="translate(-36 -180.8)"/><path class="cls-1" d="M642.09,401.1V366.38q0-5.42,4.67-5.42H662.5c2.79.17,4.26,1.57,4.43,4.19-.17,2.79-1.64,4.27-4.43,4.43H651.44v9.11h10.33a4.53,4.53,0,0,1,4.67,4.44c-.33,2.79-1.88,4.27-4.67,4.43H651.44v9.6H663q4.18,0,4.43,4.19-.24,4.18-4.43,4.43H646.76Q642.33,405.54,642.09,401.1Z" transform="translate(-36 -180.8)"/><path class="cls-1" d="M673.19,365.26a4.22,4.22,0,0,1-4.1,4.33h-15a4.22,4.22,0,0,1-4.1-4.33h0a4.22,4.22,0,0,1,4.1-4.33h15a4.22,4.22,0,0,1,4.1,4.33Z" transform="translate(-36 -180.8)"/><path class="cls-1" d="M673.19,383.11a4.29,4.29,0,0,1-4.1,4.45h-15a4.29,4.29,0,0,1-4.1-4.45h0a4.29,4.29,0,0,1,4.1-4.45h15a4.29,4.29,0,0,1,4.1,4.45Z" transform="translate(-36 -180.8)"/><path class="cls-1" d="M673.19,401.5a4.2,4.2,0,0,1-4.1,4.28h-15a4.2,4.2,0,0,1-4.1-4.28h0a4.2,4.2,0,0,1,4.1-4.28h15a4.2,4.2,0,0,1,4.1,4.28Z" transform="translate(-36 -180.8)"/><path class="cls-1" d="M593.64,383.37q1.47-21.66,21.64-23.15,13,.75,13.53,6.9c-.16,2.62-1.4,4-3.69,4.18a9.63,9.63,0,0,1-3.2-.73,19.48,19.48,0,0,0-6.64-1.23q-11.07.74-11.8,14.28.74,13,11.8,13.79a16.23,16.23,0,0,0,6.89-1.73,9.37,9.37,0,0,1,3.19-1c2.46.17,3.85,1.64,4.18,4.43q-.24,6.64-14.26,6.9Q595.11,404.8,593.64,383.37Z" transform="translate(-36 -180.8)"/><path class="cls-1" d="M171.29,321a7.68,7.68,0,0,0-7.55-7.63l-.05,0H117a1,1,0,0,0-1,1v13.38a1,1,0,0,0,1,.95h46.71A7.68,7.68,0,0,0,171.29,321Z" transform="translate(-36 -180.8)"/><path class="cls-1" d="M36,321a7.69,7.69,0,0,0,7.55,7.63H90.26a1,1,0,0,0,1-.95V314.31a1,1,0,0,0-1-1H43.6l-.05,0A7.69,7.69,0,0,0,36,321Z" transform="translate(-36 -180.8)"/><path class="cls-1" d="M111.36,266.32a7.74,7.74,0,0,0-15.46,0s0,0,0,.05v77.3h0v76.92s-.25,15.54-1.64,25-1.24,16.29,5.65,17.7c8,1.65,9.76-5.86,10.33-11s1.06-17,1.13-23.85,0-7.7,0-7.7V366.18h0V266.37S111.36,266.34,111.36,266.32Z" transform="translate(-36 -180.8)"/><path class="cls-1" d="M450.37,321.92l-.05,0H402.15s0,0,0,0a7.63,7.63,0,0,0,0,15.25l0,0h48.17l.05,0a7.63,7.63,0,0,0,0-15.25Z" transform="translate(-36 -180.8)"/><path class="cls-1" d="M386,271.31l0,0h37.16l.05,0H430c26,0,47.22,20.89,47.22,46.58v86h.11v53.39h15.47v-33.2h0V324.27s0,0,0,0a9.44,9.44,0,0,0-.15-1.19v-5.15c0-34.09-28.11-61.82-62.67-61.82h-6.78l-.05,0H386l0,0c-3.59.1-6.48,3.47-6.48,7.63S382.4,271.2,386,271.31Z" transform="translate(-36 -180.8)"/><path class="cls-1" d="M485.31,449.66l-.05,0H365.16l0,0a7.63,7.63,0,0,0,0,15.25l0,0h120.1l.05,0a7.63,7.63,0,0,0,0-15.25Z" transform="translate(-36 -180.8)"/><path class="cls-1" d="M374,293.86a7.74,7.74,0,0,0-15.47,0s0,0,0,.05V351h0v40.47s-.24,15.54-1.63,25-1.24,16.29,5.64,17.71c8,1.64,9.77-5.86,10.33-11s1.07-17,1.14-23.85,0-7.7,0-7.7V343.74h0V293.91S374,293.88,374,293.86Z" transform="translate(-36 -180.8)"/><path class="cls-1" d="M436.15,382.16v-23.1h0V301.47a1,1,0,0,0-1-1H421.65a1,1,0,0,0-1,1v64.82h0v28.94c-2.26,10.55-10.75,18.43-20.9,18.46h-.11l-.41,0v0H399a1,1,0,0,0-1,.95v13.3a1,1,0,0,0,1,1h.3l.47,0c18.37,0,34-15.19,36.45-33.62Z" transform="translate(-36 -180.8)"/><path class="cls-1" d="M436.18,355.76l-32,17.88s0,.07-.07.1L389.33,382a1,1,0,0,0-.37,1.31L395.65,395a1,1,0,0,0,1.33.36l39.2-21.94Z" transform="translate(-36 -180.8)"/><path class="cls-1" d="M455.25,353.89a7.8,7.8,0,0,0-10.39-3h-.06l-3.95,2.22v17.58l11.61-6.49s0,0,0-.05A7.58,7.58,0,0,0,455.25,353.89Z" transform="translate(-36 -180.8)"/><path class="cls-1" d="M320.63,353a228.58,228.58,0,0,1-49.85-39c-4.7-3.77-8.43-5.67-11.16-5.67a15.62,15.62,0,0,0-10,5.67q-21.15,19.44-51.13,36.46c-5.88,3.78-9.68,9.15-7.71,15.63,2.3,7.59,8.29,6.75,14.16,3,1.18-.53,44.68-30.2,49.39-34a15.82,15.82,0,0,1,5.88-3.23,16,16,0,0,1,5.87,3.23q11.16,9.74,22.92,18.64h0s22.63,16.65,25.87,18.63c5.76,2.24,9.79,1.62,11.75-4.86C328.18,360.52,325.71,357.36,320.63,353Z" transform="translate(-36 -180.8)"/><path class="cls-1" d="M277.1,374.33c3.6-.11,6.48-3.48,6.48-7.63s-2.88-7.52-6.48-7.63H239.85c-3.59.11-6.48,3.47-6.48,7.63s2.89,7.52,6.48,7.63l.05,0h37.16Z" transform="translate(-36 -180.8)"/><path class="cls-1" d="M319.62,276l-.05,0H199.48l0,0a7.63,7.63,0,0,0,0,15.25l0,0H319.57l.05,0a7.63,7.63,0,0,0,0-15.25Z" transform="translate(-36 -180.8)"/><path class="cls-1" d="M319.62,385.94l-.05,0H199.48l0,0a7.63,7.63,0,0,0,0,15.25l0,0H319.57l.05,0a7.63,7.63,0,0,0,0-15.25Z" transform="translate(-36 -180.8)"/><path class="cls-1" d="M296.06,265.26c-.12-3.54-3.53-6.39-7.74-6.39s-7.62,2.85-7.73,6.39c0,0,0,0,0,0v44.17s0,0,0,0c.11,3.54,3.52,6.39,7.73,6.39s7.62-2.85,7.74-6.39c0,0,0,0,0,0V265.3S296.06,265.28,296.06,265.26Z" transform="translate(-36 -180.8)"/><path class="cls-1" d="M238.46,265.26c-.11-3.54-3.52-6.39-7.74-6.39s-7.62,2.85-7.73,6.39c0,0,0,0,0,0v44.17s0,0,0,0c.11,3.54,3.52,6.39,7.73,6.39s7.63-2.85,7.74-6.39c0,0,0,0,0,0V265.3S238.46,265.28,238.46,265.26Z" transform="translate(-36 -180.8)"/><path class="cls-2" d="M300.31,442.81" transform="translate(-36 -180.8)"/><path class="cls-1" d="M309.77,428.22c-2.84-4.34-10-13.33-10.23-13.47a10.9,10.9,0,0,0-8.81-2.37,6.44,6.44,0,0,0-4.36,3.44c-1.66,3.23.08,6,1.48,8.29.35.55.68,1.08,1,1.64q1.53,2.08,3,4.19c1,1.49,2,2.93,2.83,4.26,6.53,10.36,2.7,15.32,1.9,16.18H222.76c-.8-.86-4.63-5.82,1.91-16.18,3.72-5.9,8.47-12.06,12.65-17.5,6.53-8.48,10.2-13.39,9.84-15.58a1.41,1.41,0,0,0-.62-.95c-3.17-2-29.67-.7-32.69-.55l-4.27.22,4.2.81c3.21.62,11.42,3,10.93,6.25-.29,2.08-3.26,5.75-6.69,10-2.72,3.37-5.79,7.2-8.48,11.31-4.49,6.88-7.28,18.06-2.76,26.35,4,7.26,8.61,10.22,16.07,10.22h73.61c7.46,0,12.11-3,16.06-10.22C317,446.28,314.26,435.1,309.77,428.22Z" transform="translate(-36 -180.8)"/><path class="cls-3" d="M513.39,335.61c-.21-2.17-.31-4.46-.31-6.83,0-19.07,12.43-37.56,26.14-50.26,14.28-13.25,30.33-22.62,52.5-22.62,23.1,0,38.24,10,52.62,24.19,12.7,12.53,26,30.42,26,48.69a65.34,65.34,0,0,1-.37,7" transform="translate(-36 -180.8)"/><path class="cls-3" d="M579.31,256.23a120.22,120.22,0,0,0-8.87-12C557,228.2,541,206.72,521.87,217.51c-9.78,5.53-7.41,17.61,4.89,29.41C532.19,252.13,544.25,259,556,265" transform="translate(-36 -180.8)"/><path class="cls-3" d="M594.93,250.3A123.12,123.12,0,0,1,599,230c6.16-21.53,12.51-49.53,36-47.07,12.05,1.26,15,14.17,8.12,31-4,9.82-18.15,27.41-29.23,40.4" transform="translate(-36 -180.8)"/><path class="cls-1" d="M587.56,330.1a7.84,7.84,0,0,1-7.1-4,1.31,1.31,0,0,1,.62-1.74,1.33,1.33,0,0,1,1.76.59,5.17,5.17,0,0,0,4.72,2.59c2.72,0,5-1.72,5.08-3.91a1.35,1.35,0,0,1,1.4-1.22,1.32,1.32,0,0,1,1.24,1.39C595.06,327.32,591.66,330.1,587.56,330.1Z" transform="translate(-36 -180.8)"/><path class="cls-1" d="M600.37,330.1c-4.1,0-7.5-2.78-7.73-6.34a1.34,1.34,0,0,1,1.25-1.39,1.27,1.27,0,0,1,1.39,1.22c.15,2.19,2.38,3.91,5.09,3.91a5.19,5.19,0,0,0,4.72-2.59,1.35,1.35,0,0,1,1.77-.59,1.33,1.33,0,0,1,.61,1.75A7.87,7.87,0,0,1,600.37,330.1Z" transform="translate(-36 -180.8)"/><path class="cls-1" d="M564.25,321.91l-17.51,1.49a1.18,1.18,0,0,1-1.28-1.06h0a1.17,1.17,0,0,1,1.08-1.25l17.52-1.49a1.18,1.18,0,0,1,1.27,1.06h0A1.16,1.16,0,0,1,564.25,321.91Z" transform="translate(-36 -180.8)"/><path class="cls-1" d="M618.32,322l17.52,1.38a1.16,1.16,0,0,0,1.27-1.06h0A1.17,1.17,0,0,0,636,321l-17.52-1.38a1.17,1.17,0,0,0-1.27,1.07h0A1.16,1.16,0,0,0,618.32,322Z" transform="translate(-36 -180.8)"/></svg>